<?xml version="1.0" encoding="UTF-8"?>
<svg version="1.1" xmlns="http://www.w3.org/2000/svg" width="512" height="512">
<path d="M0 0 C1.24088194 -0.00453111 2.48176388 -0.00906223 3.7602483 -0.01373065 C7.19739517 -0.02419314 10.63433262 -0.02570183 14.07148051 -0.02334189 C17.78118939 -0.02293339 21.49086717 -0.03397606 25.20056152 -0.04345703 C32.46558544 -0.06006002 39.7305769 -0.06556624 46.99561821 -0.06668179 C52.90120871 -0.06763251 58.80678852 -0.07174399 64.71237564 -0.07808304 C81.45901551 -0.09569282 98.20562976 -0.10492221 114.95227896 -0.10342209 C116.30610763 -0.10330222 116.30610763 -0.10330222 117.68728638 -0.10317993 C119.04276947 -0.10305729 119.04276947 -0.10305729 120.42563607 -0.10293217 C135.07304322 -0.10211914 149.72034758 -0.1212618 164.367725 -0.14945666 C179.41068599 -0.17818435 194.45359684 -0.19199705 209.49658597 -0.19026911 C217.94086177 -0.18960522 226.38502977 -0.19509748 234.82928085 -0.21662521 C242.01822676 -0.23483541 249.20701599 -0.23918565 256.39597498 -0.22560637 C260.06284997 -0.2190761 263.72942436 -0.21896132 267.39627075 -0.23631287 C271.37385746 -0.25494109 275.3510052 -0.24249063 279.32861328 -0.22705078 C280.48406611 -0.23733791 281.63951895 -0.24762503 282.8299855 -0.25822389 C290.86613376 -0.18922225 296.04290669 1.15900987 302.35379028 6.39242554 C308.5754155 13.73075271 313.49001062 21.88768722 318.16629028 30.26742554 C318.72211792 31.25621704 319.27794556 32.24500854 319.85061646 33.26376343 C324.79079504 42.12277551 329.37931331 51.13565925 333.79129028 60.26742554 C334.39602173 60.28200806 335.00075317 60.29659058 335.62380981 60.31161499 C338.38858293 60.38651742 341.15220386 60.48303626 343.91629028 60.57992554 C344.86761841 60.60248413 345.81894653 60.62504272 346.79910278 60.64828491 C356.63499485 61.02396135 356.63499485 61.02396135 360.79129028 64.26742554 C363.44065281 70.43567146 365.08193909 76.80196063 366.70925903 83.30258179 C366.97136673 84.34007065 367.23347443 85.37755951 367.50352478 86.44648743 C368.05296554 88.62845894 368.59993705 90.81105358 369.14456177 92.99423218 C369.97765451 96.32538412 370.82450868 99.65284052 371.67214966 102.98031616 C372.20619526 105.10836012 372.73942621 107.23660873 373.27175903 109.36508179 C373.52483322 110.35379776 373.77790741 111.34251373 374.03865051 112.3611908 C375.29466433 117.45269759 376.26516259 122.01979186 375.79129028 127.26742554 C373.65449743 130.65682109 372.61381358 131.9932511 368.79129028 133.26742554 C367.39689364 133.3340793 365.99959154 133.35280752 364.60379028 133.32992554 C363.34566528 133.30930054 362.08754028 133.28867554 360.79129028 133.26742554 C361.22828247 134.71182007 361.22828247 134.71182007 361.67410278 136.18539429 C384.50639701 213.7604047 384.20589603 301.87490123 360.79129028 379.26742554 C362.05199341 379.24035522 363.31269653 379.21328491 364.61160278 379.18539429 C368.49743976 379.10195607 370.67840549 379.79542879 373.79129028 382.26742554 C376.66026366 386.57088561 376.22650188 389.96842171 375.29943848 394.8656311 C374.59640336 397.97339607 373.83528065 401.06146643 373.05300903 404.15023804 C372.77157547 405.28266937 372.49014191 406.41510071 372.20018005 407.58184814 C371.60479819 409.96812623 371.00527925 412.35337545 370.40188599 414.73764038 C369.48093642 418.38392838 368.57765377 422.03427925 367.67605591 425.68539429 C367.09442979 428.0072737 366.51178203 430.32889747 365.92800903 432.65023804 C365.65913376 433.73990875 365.39025848 434.82957947 365.11323547 435.95227051 C364.85319229 436.97037811 364.59314911 437.98848572 364.32522583 439.03744507 C364.10094406 439.92900299 363.87666229 440.82056091 363.64558411 441.73913574 C362.34628985 445.58440808 361.05463198 448.58154826 357.42141724 450.55404663 C354.77061818 451.27303251 352.4507022 451.58057602 349.70925903 451.68148804 C348.77791138 451.72015991 347.84656372 451.75883179 346.88699341 451.79867554 C345.44743286 451.84508179 345.44743286 451.84508179 343.97879028 451.89242554 C342.99974731 451.93109741 342.02070435 451.96976929 341.01199341 452.00961304 C338.60527654 452.1035337 336.19856016 452.18920755 333.79129028 452.26742554 C333.36384521 453.1615918 333.36384521 453.1615918 332.92776489 454.07382202 C327.02709371 466.33624552 320.80479339 478.29563384 313.79129028 489.95492554 C313.15699097 491.01058716 312.52269165 492.06624878 311.86917114 493.15390015 C304.05097558 505.98651739 304.05097558 505.98651739 298.16629028 509.01742554 C297.00226685 509.62844116 297.00226685 509.62844116 295.81472778 510.25180054 C292.47493235 511.92814574 290.59310382 512.39429925 286.82265377 512.40164661 C285.76526971 512.40610446 284.70788565 512.4105623 283.61845964 512.41515523 C282.44757612 512.41497087 281.2766926 512.41478651 280.07032776 512.41459656 C278.83356908 512.41827325 277.59681041 512.42194993 276.3225742 512.42573804 C272.87837663 512.43487768 269.43422676 512.43947738 265.99002159 512.44212735 C262.27954927 512.44602584 258.56909081 512.45560465 254.85862732 512.46434021 C245.89085856 512.48412 236.92308865 512.49417384 227.95530352 512.503068 C223.73308574 512.50744939 219.51086921 512.51281668 215.28865242 512.51805687 C201.25353855 512.53507249 187.21842548 512.549566 173.18330288 512.55680561 C169.53952979 512.55871554 165.89575671 512.56063587 162.25198364 512.56259155 C161.34632855 512.56307529 160.44067346 512.56355903 159.50757427 512.56405743 C144.84119389 512.57235517 130.17489514 512.59768626 115.5085504 512.63017223 C100.45328676 512.66324785 85.3980646 512.68125492 70.34276444 512.68444985 C61.88888845 512.68661475 53.43513141 512.69536007 44.98129082 512.72091103 C37.78020753 512.7426251 30.57927207 512.75066508 23.37815975 512.74094424 C19.70510699 512.73640122 16.03235918 512.73828538 12.3593483 512.75770569 C8.37315203 512.77859938 4.38737514 512.76834624 0.40113831 512.75517273 C-0.75413016 512.76614198 -1.90939863 512.77711122 -3.09967524 512.78841287 C-11.79544649 512.71904245 -18.38002035 511.04593181 -24.90792847 505.12680054 C-28.69608305 501.02360231 -31.35538631 496.39729926 -34.02120972 491.51742554 C-34.5311145 490.60509155 -35.04101929 489.69275757 -35.56637573 488.7527771 C-39.82346447 481.09147189 -43.92368374 473.34649241 -47.95480347 465.56430054 C-48.51820435 464.51750122 -48.51820435 464.51750122 -49.09298706 463.44955444 C-50.20870972 461.26742554 -50.20870972 461.26742554 -51.23458862 458.75326538 C-52.35687956 456.23196105 -53.34061065 454.30359967 -55.20870972 452.26742554 C-58.72750913 451.10540515 -62.03480395 451.23071304 -65.70870972 451.39242554 C-77.43718148 451.61828332 -77.43718148 451.61828332 -81.20870972 448.26742554 C-84.68091411 443.57992026 -85.73808002 438.22937203 -87.12667847 432.66586304 C-87.38878616 431.63361603 -87.65089386 430.60136902 -87.92094421 429.5378418 C-88.47217456 427.35517673 -89.0190902 425.17141805 -89.5619812 422.98666382 C-90.38903849 419.67117339 -91.23843768 416.36196212 -92.08956909 413.05258179 C-92.62414929 410.92402091 -93.15739509 408.79512437 -93.68917847 406.66586304 C-93.94225266 405.68838104 -94.19532684 404.71089905 -94.45606995 403.70379639 C-96.03023227 397.25856272 -96.98845352 390.90830706 -96.20870972 384.26742554 C-94.02252334 381.10122458 -92.83979361 380.47778683 -89.20870972 379.26742554 C-86.87571146 379.22788319 -84.54162783 379.22340821 -82.20870972 379.26742554 C-82.39457642 378.56585327 -82.58044312 377.86428101 -82.77194214 377.14144897 C-91.70354666 343.15456065 -98.27771063 308.27544507 -98.41183472 273.02523804 C-98.41884903 271.79112183 -98.42586334 270.55700562 -98.43309021 269.28549194 C-98.45051469 265.32111963 -98.45752428 261.35682799 -98.45870972 257.39242554 C-98.45915157 256.71772972 -98.45959343 256.04303391 -98.46004868 255.34789276 C-98.46687412 235.49028405 -98.22263873 215.93882562 -95.20870972 196.26742554 C-95.03710327 195.0734314 -94.86549683 193.87943726 -94.68869019 192.64926147 C-91.82912552 172.94663094 -88.53120933 152.23492437 -82.20870972 133.26742554 C-83.23995972 133.32930054 -84.27120972 133.39117554 -85.33370972 133.45492554 C-89.4752712 133.2545274 -91.7133334 132.43122992 -95.20870972 130.26742554 C-98.7385453 123.20775436 -95.57236784 113.10844282 -93.72433472 105.90414429 C-93.46746887 104.86852859 -93.21060303 103.8329129 -92.94595337 102.76591492 C-92.40411484 100.59547916 -91.85587313 98.42663264 -91.30148315 96.2593689 C-90.45762593 92.9506761 -89.64049997 89.63616169 -88.82589722 86.32015991 C-88.29362363 84.20192357 -87.75982218 82.08407045 -87.22433472 79.96664429 C-86.98249451 78.98217819 -86.7406543 77.9977121 -86.4914856 76.9834137 C-84.94200101 71.00987294 -83.51466009 65.61287999 -78.2482605 61.8765564 C-75.82381088 61.15247191 -74.08689364 61.23868569 -71.57589722 61.52133179 C-65.98105367 61.90533664 -60.55150907 62.22003645 -55.20870972 60.26742554 C-50.49708769 56.03835757 -48.5164989 49.68465091 -46.29025269 43.91146851 C-44.57066939 39.70761137 -42.3409967 35.82632368 -40.08370972 31.89242554 C-39.24892636 30.40813373 -38.41428761 28.92376059 -37.57980347 27.43930054 C-37.18003296 26.73611694 -36.78026245 26.03293335 -36.36837769 25.30844116 C-35.62046616 23.99211687 -34.8769604 22.67327478 -34.1388855 21.35140991 C-29.58478917 13.23295385 -24.61568689 5.16600477 -15.82966423 1.19112206 C-10.54935873 -0.15587079 -5.42895603 -0.0144964 0 0 Z " fill="#6C5150" transform="translate(116.20870971679688,-0.267425537109375)"/>
<path d="M0 0 C0.7752387 -0.00205263 1.5504774 -0.00410527 2.34920818 -0.0062201 C4.96836663 -0.01191164 7.58747285 -0.01043021 10.20663643 -0.00901413 C12.09482132 -0.01159652 13.98300566 -0.01460933 15.87118924 -0.01801753 C21.07668166 -0.02610541 26.2821603 -0.02787809 31.48765826 -0.028615 C37.09511929 -0.03046242 42.70257311 -0.03800813 48.31002998 -0.04475021 C60.57839086 -0.0583462 72.84674848 -0.06436007 85.11511564 -0.06876087 C92.770533 -0.07152085 100.42594909 -0.07575772 108.08136559 -0.08026505 C129.26316124 -0.09245878 150.44495582 -0.10279367 171.62675476 -0.10614014 C172.99675757 -0.10636177 174.36676038 -0.10658355 175.73676319 -0.10680549 C177.11010115 -0.10702613 178.48343911 -0.10724661 179.85677707 -0.10746694 C182.61199753 -0.10790949 185.36721798 -0.10835661 188.12243843 -0.10880661 C189.14714168 -0.1089707 189.14714168 -0.1089707 190.192546 -0.1091381 C212.35139175 -0.11277005 234.51020481 -0.12869537 256.66903803 -0.15199697 C280.08820897 -0.17657897 303.507356 -0.19030546 326.9265424 -0.19150805 C339.69617318 -0.19242615 352.46576115 -0.19821237 365.23538017 -0.21632767 C376.10655734 -0.23169512 386.97767847 -0.23686897 397.84886442 -0.22858956 C403.39877719 -0.22467129 408.94857701 -0.22566988 414.49847603 -0.23964691 C419.57501118 -0.25231531 424.65134768 -0.25125087 429.72788228 -0.2390562 C431.56838271 -0.2370869 433.40889687 -0.24023398 435.24937795 -0.24890056 C437.74398021 -0.2599074 440.23787071 -0.25256647 442.73245239 -0.24050903 C443.45324999 -0.24810423 444.1740476 -0.25569942 444.91668755 -0.26352477 C449.28012282 -0.21774213 452.03192925 0.44054752 455.49206734 3.13142776 C458.36104072 7.43488784 457.92727893 10.83242393 457.00021553 15.72963333 C456.29718042 18.83739829 455.5360577 21.92546866 454.75378609 25.01424026 C454.47235252 26.1466716 454.19091896 27.27910294 453.90095711 28.44585037 C453.30557524 30.83212846 452.70605631 33.21737768 452.10266304 35.60164261 C451.18171348 39.24793061 450.27843083 42.89828148 449.37683296 46.54939651 C448.79520685 48.87127592 448.21255908 51.1928997 447.62878609 53.51424026 C447.35991081 54.60391098 447.09103554 55.6935817 446.81401253 56.81627274 C446.55396935 57.83438034 446.29392616 58.85248795 446.02600288 59.9014473 C445.80172112 60.79300522 445.57743935 61.68456314 445.34636116 62.60313797 C444.0470669 66.44841031 442.75540904 69.44555048 439.12219429 71.41804886 C436.47139524 72.13703473 434.15147926 72.44457825 431.41003609 72.54549026 C430.47868843 72.58416214 429.54734077 72.62283401 428.58777046 72.66267776 C427.62806343 72.69361526 426.6683564 72.72455276 425.67956734 72.75642776 C424.70052437 72.79509964 423.7214814 72.83377151 422.71277046 72.87361526 C420.30605359 72.96753592 417.89933722 73.05320978 415.49206734 73.13142776 C415.06462227 74.02559402 415.06462227 74.02559402 414.62854195 74.93782425 C408.72787076 87.20024774 402.50557045 99.15963606 395.49206734 110.81892776 C394.85776802 111.87458939 394.2234687 112.93025101 393.5699482 114.01790237 C385.75175263 126.85051962 385.75175263 126.85051962 379.86706734 129.88142776 C378.7030439 130.49244339 378.7030439 130.49244339 377.51550484 131.11580276 C374.1757094 132.79214796 372.29388087 133.25830148 368.52343082 133.26564884 C367.46604676 133.27010669 366.4086627 133.27456453 365.3192367 133.27915746 C364.14835317 133.2789731 362.97746965 133.27878873 361.77110481 133.27859879 C360.53434614 133.28227547 359.29758746 133.28595216 358.02335125 133.28974026 C354.57915368 133.29887991 351.13500382 133.30347961 347.69079864 133.30612957 C343.98032632 133.31002807 340.26986786 133.31960688 336.55940437 133.32834244 C327.59163561 133.34812223 318.6238657 133.35817607 309.65608057 133.36707023 C305.43386279 133.37145162 301.21164626 133.37681891 296.98942947 133.3820591 C282.95431561 133.39907472 268.91920253 133.41356823 254.88407993 133.42080784 C251.24030684 133.42271777 247.59653376 133.42463809 243.9527607 133.42659378 C243.0471056 133.42707752 242.14145051 133.42756126 241.20835132 133.42805966 C226.54197094 133.4363574 211.8756722 133.46168849 197.20932745 133.49417446 C182.15406382 133.52725007 167.09884165 133.54525715 152.04354149 133.54845208 C143.5896655 133.55061697 135.13590846 133.55936229 126.68206787 133.58491325 C119.48098458 133.60662733 112.28004912 133.61466731 105.07893681 133.60494647 C101.40588404 133.60040345 97.73313624 133.60228761 94.06012535 133.62170792 C90.07392908 133.64260161 86.0881522 133.63234847 82.10191536 133.61917496 C80.36901266 133.63562883 80.36901266 133.63562883 78.60110182 133.6524151 C69.90533057 133.58304468 63.3207567 131.90993404 56.79284859 125.99080276 C53.00469401 121.88760454 50.34539075 117.26130149 47.67956734 112.38142776 C47.16966255 111.46909378 46.65975777 110.5567598 46.13440132 109.61677933 C41.87731259 101.95547412 37.77709331 94.21049464 33.74597359 86.42830276 C33.370373 85.73043655 32.99477242 85.03257034 32.60778999 84.31355667 C31.49206734 82.13142776 31.49206734 82.13142776 30.46618843 79.61726761 C29.3438975 77.09596328 28.3601664 75.1676019 26.49206734 73.13142776 C22.97326792 71.96940738 19.6659731 72.09471527 15.99206734 72.25642776 C4.26359557 72.48228554 4.26359557 72.48228554 0.49206734 69.13142776 C-2.98013706 64.44392249 -4.03730297 59.09337426 -5.42590141 53.52986526 C-5.68800911 52.49761826 -5.95011681 51.46537125 -6.22016716 50.40184402 C-6.77139751 48.21917896 -7.31831315 46.03542028 -7.86120415 43.85066605 C-8.68826144 40.53517562 -9.53766063 37.22596435 -10.38879204 33.91658401 C-10.92337223 31.78802314 -11.45661804 29.6591266 -11.98840141 27.52986526 C-12.2414756 26.55238327 -12.49454979 25.57490128 -12.75529289 24.56779861 C-14.32945522 18.12256494 -15.28767647 11.77230929 -14.50793266 5.13142776 C-10.7911523 -0.25149552 -6.04034825 -0.01473262 0 0 Z " fill="#59474E" transform="translate(34.50793266296387,378.8685722351074)"/>
<path d="M0 0 C1.05021725 -0.00865438 2.1004345 -0.01730876 3.18247652 -0.02622539 C6.70742653 -0.04784493 10.23080364 -0.02650463 13.7557373 -0.00532532 C16.28035742 -0.01181716 18.80497205 -0.0208772 21.32957458 -0.03231812 C27.47831534 -0.05303125 33.62647144 -0.04566584 39.775195 -0.02481725 C44.77220638 -0.00853438 49.76909369 -0.00433337 54.76612854 -0.00878334 C55.47727531 -0.00941402 56.18842209 -0.01004469 56.92111877 -0.01069448 C58.36579147 -0.01204053 59.81046415 -0.0134201 61.25513679 -0.01483283 C74.80251193 -0.02677041 88.34963787 -0.00270166 101.89695626 0.03418525 C113.5216838 0.06507839 125.14612442 0.06744943 136.77087402 0.04838562 C150.26966659 0.026274 163.76829831 0.02012882 177.2670989 0.04070824 C178.70646252 0.04287119 180.14582616 0.04502028 181.58518982 0.04715538 C182.29338766 0.04822175 183.0015855 0.04928811 183.73124388 0.05038679 C188.72235328 0.05685678 193.71337993 0.05208988 198.70448303 0.04313087 C205.42199967 0.03149558 212.13894931 0.0466588 218.8564167 0.07987404 C221.32474488 0.08809719 223.79311814 0.08777872 226.26144218 0.07839584 C229.62529055 0.06701126 232.98759351 0.08628319 236.35131836 0.11352539 C237.33331727 0.1030539 238.31531617 0.09258241 239.32707262 0.08179361 C243.94432375 0.15168637 246.00658766 0.24177155 249.76663971 3.1269865 C251.9046691 6.07045538 252.47430964 7.83770479 252.88659668 11.43095398 C253.0242041 12.58031433 253.16181152 13.72967468 253.30358887 14.91386414 C253.42637207 16.18149597 253.54915527 17.44912781 253.67565918 18.75517273 C253.74498657 19.42417603 253.81431396 20.09317932 253.88574219 20.78245544 C254.44112225 26.16307137 254.88973048 31.54926633 255.30065918 36.94267273 C255.39921204 38.22251541 255.39921204 38.22251541 255.49975586 39.5282135 C256.53898801 53.37861993 256.95183897 67.17992627 256.92565918 81.06767273 C256.92479309 81.92138458 256.923927 82.77509644 256.92303467 83.65467834 C256.87773519 100.84790943 256.13860531 117.93983672 254.05603027 135.01298523 C253.79485294 137.1783101 253.55349532 139.34534468 253.31237793 141.51298523 C253.14558902 142.91416784 252.97766561 144.31521599 252.80847168 145.71611023 C252.66296875 146.9515155 252.51746582 148.18692078 252.36755371 149.45976257 C251.65797552 152.83939786 250.70640107 154.98180326 248.67565918 157.75517273 C246.35220395 158.91690035 245.01427739 158.88344429 242.42707253 158.88939381 C241.08195058 158.89608057 241.08195058 158.89608057 239.70965445 158.90290242 C238.7182349 158.90271806 237.72681535 158.9025337 236.70535278 158.90234375 C235.13281347 158.90785878 235.13281347 158.90785878 233.52850568 158.91348523 C229.99242829 158.92455646 226.45638025 158.9283717 222.92028809 158.93217468 C220.39449469 158.93843663 217.86870222 158.94508318 215.34291077 158.9520874 C207.74707388 158.97133901 200.15124214 158.98191837 192.55538708 158.99081519 C188.98055151 158.99519629 185.40571742 159.00056351 181.83088303 159.00580406 C169.95150116 159.02281607 158.07212022 159.0373115 146.19272804 159.0445528 C143.10923893 159.04646277 140.02574983 159.04838309 136.94226074 159.05033875 C136.17585299 159.05082249 135.40944524 159.05130623 134.61981301 159.05180462 C122.19716578 159.06010964 109.77461471 159.08545458 97.35200949 159.11791942 C84.60538503 159.15096023 71.85880949 159.1689988 59.11214197 159.17219704 C51.95230102 159.17436477 44.79260034 159.18315168 37.63280106 159.20865822 C30.90067615 159.23258551 24.16884782 159.23620972 17.43667412 159.22589684 C14.96145603 159.22539913 12.48622587 159.23178812 10.01104546 159.24545288 C6.64036668 159.26302503 3.27061062 159.25613768 -0.10006714 159.24291992 C-1.5805043 159.25937379 -1.5805043 159.25937379 -3.09084928 159.27616006 C-9.69414995 159.2133391 -9.69414995 159.2133391 -12.91512775 156.87159824 C-14.53733098 154.43529362 -15.05455132 152.69055156 -15.47399902 149.79862976 C-15.62068024 148.82460205 -15.76736145 147.85057434 -15.91848755 146.84703064 C-16.11938492 145.31656097 -16.11938492 145.31656097 -16.32434082 143.75517273 C-16.46479828 142.76402466 -16.60525574 141.77287659 -16.74996948 140.75169373 C-19.21581485 122.47756162 -19.77010044 104.32086694 -19.64691162 85.91325378 C-19.63351308 83.20837182 -19.63874828 80.50365581 -19.64378834 77.79875565 C-19.73693211 10.90003318 -19.73693211 10.90003318 -12.03941441 2.04236066 C-8.51354496 -0.60385618 -4.23559376 -0.06067193 0 0 Z " fill="#FCD6AC" transform="translate(137.3243408203125,176.2448272705078)"/>
<path d="M0 0 C108.57 0 217.14 0 329 0 C336.22705301 39.74879158 336.22705301 39.74879158 337.66015625 52.94970703 C337.89374795 55.04632676 338.14472148 57.14105998 338.41015625 59.23388672 C346.24726354 121.5865478 340.17717421 184.52554186 329 246 C220.76 246 112.52 246 1 246 C-1.37664389 235.3051025 -3.64172764 224.97669414 -5.125 214.1875 C-5.43974144 211.97260468 -5.75484478 209.75776075 -6.0703125 207.54296875 C-6.22226074 206.45725586 -6.37420898 205.37154297 -6.53076172 204.25292969 C-6.99324696 201.04681453 -7.50157553 197.8505465 -8.015625 194.65234375 C-15.41021057 146.62346849 -13.7453128 96.32033405 -7.6875 48.25 C-7.59280426 47.49489136 -7.49810852 46.73978271 -7.40054321 45.96179199 C-5.43510472 30.54484939 -2.64354777 15.33257708 0 0 Z M31 50 C30.08153827 52.85807072 30.08153827 52.85807072 29.890625 55.859375 C29.77589844 56.97699219 29.66117188 58.09460938 29.54296875 59.24609375 C29.44628906 60.40238281 29.34960938 61.55867188 29.25 62.75 C29.08177734 64.41482422 29.08177734 64.41482422 28.91015625 66.11328125 C28.55946892 69.7398008 28.26967026 73.3665726 28 77 C27.85751831 78.89032959 27.85751831 78.89032959 27.7121582 80.81884766 C26.68611791 95.81408984 26.71309772 110.85135677 26.6875 125.875 C26.68590755 126.58004795 26.68431511 127.2850959 26.68267441 128.01150894 C26.64892595 145.62598503 26.76307106 163.16746008 28.8125 180.6875 C28.93665787 181.77934601 28.93665787 181.77934601 29.06332397 182.89324951 C30.21005607 193.42225293 30.21005607 193.42225293 36 202 C37.96300453 202.3033347 37.96300453 202.3033347 40.24858665 202.25447559 C41.14533462 202.26030779 42.04208258 202.26613998 42.96600473 202.27214891 C43.95742428 202.26836958 44.94884383 202.26459026 45.9703064 202.26069641 C47.01866594 202.26452196 48.06702548 202.26834751 49.1471535 202.27228898 C52.68327607 202.28266221 56.21923758 202.27861863 59.75537109 202.2746582 C62.28116507 202.27900231 64.80695773 202.28418444 67.33274841 202.29014587 C73.49541807 202.30218286 79.65802769 202.30468324 85.82070683 202.30234561 C90.82873488 202.30056506 95.83674969 202.30230644 100.84477615 202.30657005 C101.9125391 202.30746284 101.9125391 202.30746284 103.00187302 202.30837366 C104.44783603 202.30958537 105.89379904 202.3107995 107.33976205 202.31201603 C120.91179789 202.322902 134.48380892 202.32072423 148.05584617 202.31463119 C160.47847866 202.30946242 172.90103272 202.32071452 185.32364969 202.33972941 C198.07027964 202.35909108 210.81687246 202.36736666 223.56351721 202.36360615 C230.72332375 202.36169139 237.88306355 202.36420823 245.04285812 202.37832069 C251.77495861 202.39145545 258.50687641 202.38899718 265.23898506 202.37590981 C267.71419515 202.37353468 270.18941615 202.37631194 272.66461372 202.38453293 C276.03516978 202.39492301 279.40519009 202.38696183 282.77572632 202.3742218 C283.76268443 202.38159609 284.74964253 202.38897037 285.76650846 202.39656812 C286.66847192 202.38936158 287.57043538 202.38215503 288.49973106 202.37473011 C289.66688402 202.37481263 289.66688402 202.37481263 290.85761583 202.37489682 C293.57570366 201.89925734 294.966107 200.82969224 297 199 C297.85230274 197.19038865 297.85230274 197.19038865 298.15234375 195.1171875 C298.37253174 193.91980957 298.37253174 193.91980957 298.59716797 192.69824219 C299.37051615 187.51821545 299.99951363 182.33187925 300.5625 177.125 C300.68818359 176.03703125 300.81386719 174.9490625 300.94335938 173.828125 C302.75818144 157.37120448 303.23321419 140.85843067 303.25 124.3125 C303.25167175 123.42567535 303.25334351 122.53885071 303.25506592 121.62515259 C303.25660547 107.76718231 302.68889768 94.00365625 301.625 80.1875 C301.56187622 79.35900543 301.49875244 78.53051086 301.43371582 77.6769104 C301.02554143 72.44327019 300.54108695 67.22144188 300 62 C299.8772168 60.73236816 299.75443359 59.46473633 299.62792969 58.15869141 C299.49032227 57.00933105 299.35271484 55.8599707 299.2109375 54.67578125 C299.0979834 53.69134033 298.9850293 52.70689941 298.86865234 51.69262695 C297.64049788 47.88562425 296.18839055 46.44655977 293 44 C289.56213857 43.25650725 286.18203197 43.32096266 282.67565918 43.35835266 C281.62544193 43.34984714 280.57522468 43.34134162 279.49318266 43.33257836 C275.96842261 43.31026461 272.44471389 43.32375936 268.91992188 43.3371582 C266.39530174 43.32874752 263.87068788 43.31822353 261.34608459 43.30574036 C255.19742338 43.28145158 249.04915193 43.28074167 242.90046418 43.29177854 C237.90345847 43.30033614 232.90653737 43.29950687 227.90953064 43.29198265 C226.84281048 43.29040032 226.84281048 43.29040032 225.75454041 43.28878602 C224.30986772 43.2866151 222.86519504 43.28442833 221.42052239 43.28222587 C207.87319007 43.26279495 194.32602182 43.27479512 180.77870291 43.29701182 C169.15394683 43.31526438 157.52950831 43.30435711 145.90478516 43.27270508 C132.40599413 43.23595239 118.90740145 43.21891699 105.40856028 43.23211735 C103.96919667 43.23345846 102.52983303 43.23476744 101.09046936 43.23604393 C100.0281726 43.23698993 100.0281726 43.23698993 98.9444153 43.23795504 C93.95327521 43.24098351 88.96228464 43.2297168 83.97117615 43.21279335 C77.25361257 43.19035917 70.53680703 43.19944456 63.81924248 43.22988701 C61.35090534 43.23623413 58.88251774 43.2323065 56.414217 43.21747589 C53.05016599 43.1988982 49.68828216 43.21710651 46.32434082 43.24482727 C45.34234191 43.23076082 44.36034301 43.21669437 43.34858656 43.20220166 C36.82716958 43.31085372 34.43261195 44.35991047 31 50 Z " fill="#AF8066" transform="translate(91,133)"/>
<path d="M0 0 C78.21 0 156.42 0 237 0 C251.99952117 31.15285167 251.99952117 31.15285167 256.1875 42.25 C256.63673828 43.405 257.08597656 44.56 257.54882812 45.75 C259.63155226 51.1544979 261.40298384 56.41044345 263 62 C167.96 62 72.92 62 -25 62 C-23.88278231 55.29669388 -21.73422638 49.66604089 -19.25 43.375 C-18.83878906 42.30121094 -18.42757812 41.22742187 -18.00390625 40.12109375 C-12.62558497 26.42101461 -6.22870879 13.41568046 0 0 Z " fill="#AE7F65" transform="translate(137,0)"/>
<path d="M0 0 C95.04 0 190.08 0 288 0 C285.52329153 7.43012542 282.8940544 14.70598144 280.0625 22 C279.65193359 23.08539063 279.24136719 24.17078125 278.81835938 25.2890625 C273.89784175 37.94386254 267.93641091 49.63247727 262 62 C183.79 62 105.58 62 25 62 C9.87311015 29.41900648 9.87311015 29.41900648 3.88183594 13.35351562 C3.29810003 11.79559366 2.70253173 10.24204958 2.09472656 8.69335938 C0.90920282 5.65277457 0 3.29468954 0 0 Z " fill="#AE7F65" transform="translate(112,450)"/>
<path d="M0 0 C32.67 0 65.34 0 99 0 C106.22705301 39.74879158 106.22705301 39.74879158 107.66015625 52.94970703 C107.89374795 55.04632676 108.14472148 57.14105998 108.41015625 59.23388672 C116.24726354 121.5865478 110.17717421 184.52554186 99 246 C66.33 246 33.66 246 0 246 C0.62945803 231.52246524 1.3800991 217.35892743 3 203 C3.71552536 202.99413376 4.43105072 202.98826752 5.16825867 202.98222351 C11.92162426 202.92424536 18.67467535 202.85213964 25.42772198 202.76428509 C28.89930066 202.71961627 32.37076294 202.68035293 35.8425293 202.65356445 C39.8367256 202.62250545 43.83029368 202.56771812 47.82421875 202.51171875 C49.06709152 202.50532883 50.30996429 202.4989389 51.59049988 202.49235535 C52.75132584 202.47256119 53.91215179 202.45276703 55.1081543 202.43237305 C56.12741501 202.42126999 57.14667572 202.41016693 58.19682312 202.39872742 C61.44617079 201.9365361 63.3577296 200.916925 66 199 C66.96804714 197.20536183 66.96804714 197.20536183 67.21484375 195.1171875 C67.3526123 194.31893555 67.49038086 193.52068359 67.63232422 192.69824219 C67.75365723 191.80782227 67.87499023 190.91740234 68 190 C68.1355127 189.02450195 68.27102539 188.04900391 68.41064453 187.04394531 C68.83459397 183.74111898 69.2045461 180.4356001 69.5625 177.125 C69.75102539 175.49304688 69.75102539 175.49304688 69.94335938 173.828125 C71.75818144 157.37120448 72.23321419 140.85843067 72.25 124.3125 C72.25167175 123.42567535 72.25334351 122.53885071 72.25506592 121.62515259 C72.25660547 107.76718231 71.68889768 94.00365625 70.625 80.1875 C70.53031433 78.94475815 70.53031433 78.94475815 70.43371582 77.6769104 C70.02555589 72.44345557 69.55109238 67.2203222 69 62 C68.86561523 60.7207666 68.73123047 59.4415332 68.59277344 58.12353516 C68.44614258 56.96515137 68.29951172 55.80676758 68.1484375 54.61328125 C68.02388184 53.61723877 67.89932617 52.62119629 67.77099609 51.5949707 C66.83255992 48.43644058 65.50732568 47.09023309 63 45 C60.37822221 43.6891111 58.38475366 43.83916293 55.44873047 43.79467773 C53.70715164 43.7647599 53.70715164 43.7647599 51.9303894 43.73423767 C50.67203278 43.71752518 49.41367615 43.70081268 48.1171875 43.68359375 C46.83264679 43.66281265 45.54810608 43.64203156 44.22463989 43.62062073 C40.80850641 43.56540951 37.39231255 43.51599612 33.97607422 43.46777344 C30.49050519 43.41755143 27.00502391 43.36186903 23.51953125 43.30664062 C16.67976358 43.19907072 9.83991666 43.09762316 3 43 C2.15488936 38.973758 1.72774229 35.08640823 1.46484375 30.9765625 C1.42186661 30.31216156 1.37888947 29.64776062 1.33460999 28.96322632 C1.24480899 27.56315231 1.15665845 26.16297157 1.07006836 24.76269531 C0.93832964 22.63837809 0.80063427 20.51450932 0.66210938 18.390625 C0.27110756 12.24226906 0 6.16827445 0 0 Z " fill="#AE7F65" transform="translate(321,133)"/>
<path d="M0 0 C37.95 0 75.9 0 115 0 C113.76830127 9.85358983 112.52363658 19.68142348 111.0625 29.5 C110.80472778 31.23431274 110.80472778 31.23431274 110.54174805 33.00366211 C106.89520737 57.20958526 106.89520737 57.20958526 105 61 C73.65 61 42.3 61 10 61 C0 9.33333333 0 9.33333333 0 0 Z " fill="#CA8152" transform="translate(198,451)"/>
<path d="M0 0 C31.35 0 62.7 0 95 0 C100.78954082 28.94770408 100.78954082 28.94770408 102.8125 42.3125 C103.03017671 43.70644621 103.2482772 45.10032631 103.46679688 46.49414062 C105 56.42099001 105 56.42099001 105 61 C67.05 61 29.1 61 -10 61 C-7.16543866 40.59115835 -4.04092314 20.2046157 0 0 Z " fill="#CA8152" transform="translate(208,0)"/>
<path d="M0 0 C43.23 0 86.46 0 131 0 C132.30083342 14.30916758 133.31657562 28.64808809 134 43 C153.14 43 172.28 43 192 43 C192 43.33 192 43.66 192 44 C108.84 44 25.68 44 -60 44 C-60 43.67 -60 43.34 -60 43 C-40.86 43 -21.72 43 -2 43 C-2 36.4 -2 29.8 -2 23 C-1.34 15.41 -0.68 7.82 0 0 Z " fill="#CB8353" transform="translate(190,133)"/>
<path d="M0 0 C83.16 0 166.32 0 252 0 C252 0.33 252 0.66 252 1 C232.86 1 213.72 1 194 1 C194 4.3 194 7.6 194 11 C193.01 21.89 192.02 32.78 191 44 C147.77 44 104.54 44 60 44 C58.97768827 29.68763585 58 15.34882883 58 1 C38.86 1 19.72 1 0 1 C0 0.67 0 0.34 0 0 Z " fill="#CB8353" transform="translate(130,335)"/>
<path d="M0 0 C1.15239922 -0.00717545 1.15239922 -0.00717545 2.32807922 -0.01449585 C3.95108084 -0.01788938 5.57415131 -0.00872492 7.19702148 0.01220703 C9.65182673 0.03880297 12.1019837 0.01254287 14.55664062 -0.01953125 C25.02952295 -0.04212682 32.61861715 1.1115212 40.86328125 8.1015625 C47.23308518 15.78279665 48.2298344 21.0637974 48.36328125 30.7265625 C48.41935547 32.22606445 48.41935547 32.22606445 48.4765625 33.75585938 C48.57092177 41.82357682 46.8488293 48.66490234 41.11157227 54.6081543 C39.46693421 56.03624523 37.7348914 57.3626667 35.98828125 58.6640625 C37.87424838 65.27578634 41.26087886 71.1353369 44.53125 77.14453125 C47.38950966 82.63605637 48.75209396 86.45808423 47.98828125 92.6640625 C45.57438821 96.0719115 44.14930649 97.41703585 40.05078125 98.2890625 C36.09285211 97.48132186 33.7060725 95.53696228 30.98828125 92.6640625 C29.64857289 90.29286626 28.57279471 88.13781304 27.54296875 85.6484375 C26.93550028 84.30122204 26.32606536 82.95489184 25.71484375 81.609375 C24.77901004 79.50842341 23.85926905 77.40445874 22.97265625 75.28222656 C21.04059204 70.70416651 19.14627646 66.52875133 15.98828125 62.6640625 C11.84681398 61.16991612 8.3284231 61.10992503 3.98828125 61.6640625 C4.01446533 62.57696045 4.04064941 63.4898584 4.06762695 64.43041992 C4.15306667 67.83178594 4.21563124 71.23200508 4.26293945 74.6340332 C4.28801769 76.10361775 4.32208981 77.57307837 4.36547852 79.04223633 C4.42643624 81.15997931 4.45455441 83.27606826 4.4765625 85.39453125 C4.50274658 86.66707764 4.52893066 87.93962402 4.5559082 89.25073242 C3.83703444 93.57355998 2.40896705 95.01133013 -1.01171875 97.6640625 C-4.51171875 98.2890625 -4.51171875 98.2890625 -8.01171875 97.6640625 C-11.71042828 94.88911371 -12.88985971 93.40691941 -13.64663696 88.7935791 C-13.67620472 87.25915003 -13.67840975 85.72404037 -13.65869141 84.18945312 C-13.667453 83.34819382 -13.6762146 82.50693451 -13.6852417 81.6401825 C-13.70720309 78.86636391 -13.69269505 76.09414657 -13.67578125 73.3203125 C-13.67915033 71.38887222 -13.68400372 69.45743401 -13.6902771 67.52600098 C-13.697644 63.48083279 -13.68694878 59.43621717 -13.66357422 55.39111328 C-13.63508658 50.20890573 -13.65149152 45.02799289 -13.68143654 39.84583282 C-13.69951443 35.85831975 -13.69374922 31.87111306 -13.68079758 27.8835907 C-13.67746493 25.97303616 -13.68154569 24.06245369 -13.69319534 22.15193176 C-13.70591227 19.48009699 -13.68651657 16.81035123 -13.65869141 14.13867188 C-13.66881256 13.35098923 -13.67893372 12.56330658 -13.68936157 11.75175476 C-13.61251376 7.76371009 -13.16866184 5.86729933 -10.7033844 2.67483521 C-7.1811974 0.04363267 -4.23617476 -0.0587104 0 0 Z " fill="#815434" transform="translate(163.01171875,211.3359375)"/>
<path d="M0 0 C5.80632688 0.93315968 8.48841709 4.38512468 11.875 8.93359375 C13.09008571 10.61754406 14.29824935 12.30650737 15.5 14 C19.21879854 19.21664795 22.77882761 24.2079338 27.5 28.5625 C27.88220703 28.03406494 28.26441406 27.50562988 28.65820312 26.96118164 C32.88992927 21.12473504 37.1682217 15.32510385 41.5 9.5625 C42.16104736 8.67981445 42.16104736 8.67981445 42.83544922 7.77929688 C48.07623329 0.90034295 48.07623329 0.90034295 53.1875 -0.3125 C57.23759924 0.75733753 58.85487061 2.37278514 61.5 5.5625 C61.995 6.0575 61.995 6.0575 62.5 6.5625 C62.61103729 9.11692461 62.6573894 11.64456599 62.66113281 14.19995117 C62.66858017 15.40003311 62.66858017 15.40003311 62.67617798 16.62435913 C62.6908429 19.28473762 62.69761024 21.9450564 62.703125 24.60546875 C62.70887475 26.45054629 62.7146325 28.2956238 62.72039795 30.14070129 C62.73092152 34.01706217 62.73675468 37.89340223 62.74023438 41.76977539 C62.74570916 46.73195607 62.76970965 51.69386096 62.79820633 56.65595531 C62.816855 60.47100112 62.82203959 64.28598096 62.82357025 68.1010685 C62.8265944 69.92986871 62.83461493 71.75866782 62.84775543 73.58742332 C62.86485572 76.15118526 62.86292559 78.71427997 62.85644531 81.27807617 C62.8656601 82.03104477 62.87487488 82.78401337 62.8843689 83.55979919 C62.84694395 88.29862278 61.99654149 91.53264032 59.5 95.5625 C57.16760432 97.33190362 55.46043108 97.56923514 52.5625 98.0625 C49.06036197 97.49072236 47.72139599 96.41507611 45.55215454 93.64569092 C43.29206104 89.17086706 43.77619718 84.06939124 43.79296875 79.1640625 C43.77784744 77.97396576 43.76272614 76.78386902 43.74714661 75.55770874 C43.70425893 71.76744657 43.69542988 67.97798069 43.6875 64.1875 C43.66435676 61.61326006 43.6389918 59.03903908 43.61132812 56.46484375 C43.54846477 50.16405495 43.51353928 43.86357746 43.5 37.5625 C42.81292969 38.47773438 42.12585938 39.39296875 41.41796875 40.3359375 C40.50805803 41.53664444 39.5978882 42.73715505 38.6875 43.9375 C38.23568359 44.54078125 37.78386719 45.1440625 37.31835938 45.765625 C34.13454025 49.94874502 32.14798303 52.22153799 26.875 53.3125 C23.62177926 53.26439322 22.58626113 52.63719461 20.08203125 50.46875 C16.65345914 46.66543999 13.56554856 42.65859929 10.5 38.5625 C10.49413376 39.18810822 10.48826752 39.81371643 10.48222351 40.45828247 C10.41820272 46.97997083 10.33376028 53.5011697 10.23754883 60.02246094 C10.20433053 62.4550124 10.17628901 64.88764037 10.15356445 67.3203125 C10.11996242 70.82064358 10.06764166 74.32027555 10.01171875 77.8203125 C10.00532883 78.90490753 9.9989389 79.98950256 9.99235535 81.10696411 C9.88509253 86.63753432 9.68763403 90.82115891 6.5 95.5625 C4.16760432 97.33190362 2.46043108 97.56923514 -0.4375 98.0625 C-4.03777211 97.47470047 -5.23661648 96.22873402 -7.45148849 93.40316963 C-9.34301013 90.08258954 -9.195866 86.80876508 -9.14697266 83.06616211 C-9.15573425 82.23451035 -9.16449585 81.40285858 -9.17352295 80.54600525 C-9.19544442 77.81007991 -9.18099201 75.07578412 -9.1640625 72.33984375 C-9.16743241 70.43225292 -9.1722865 68.52466418 -9.17855835 66.61708069 C-9.18591956 62.62496437 -9.17524724 58.63340847 -9.15185547 54.64135742 C-9.12334873 49.52755423 -9.13978837 44.415062 -9.16971779 39.30130672 C-9.18779459 35.36440672 -9.18203132 31.42781707 -9.16907883 27.49090767 C-9.16574688 25.60547289 -9.16982448 23.7200098 -9.18147659 21.83460808 C-9.19419396 19.19879488 -9.17479838 16.56509902 -9.14697266 13.92944336 C-9.15709381 13.1526825 -9.16721497 12.37592163 -9.17764282 11.57562256 C-9.100017 7.60148561 -8.64517656 5.74932774 -6.17831421 2.57472229 C-3.5 0.5625 -3.5 0.5625 0 0 Z " fill="#825535" transform="translate(299.5,211.4375)"/>
<path d="M0 0 C3.21914439 2.53977593 4.80579927 4.04475651 5.63250732 8.11120605 C5.63615295 9.27526978 5.63979858 10.4393335 5.64355469 11.63867188 C5.6524321 12.28485977 5.66130951 12.93104767 5.67045593 13.59681702 C5.69405229 15.72132454 5.68296659 17.84416501 5.671875 19.96875 C5.68246111 21.45180036 5.69537522 22.93483577 5.71051025 24.41784668 C5.7446847 28.31553305 5.75009401 32.2127189 5.74859619 36.11053467 C5.75182193 41.60117093 5.79461258 47.09166696 5.83233643 52.58215332 C5.85227012 55.50368794 5.8616822 58.42495792 5.86248779 61.34655762 C5.86631045 62.68481452 5.87015453 64.02307136 5.87402344 65.36132812 C5.87448669 66.52539185 5.87494995 67.68945557 5.87542725 68.88879395 C5.98856582 71.71443114 6.35178393 74.25358336 7 77 C10.67193138 78.22397713 14.11083559 78.26111238 17.9375 78.3125 C18.65357422 78.34150391 19.36964844 78.37050781 20.10742188 78.40039062 C23.62000999 78.44271096 25.594398 78.30436374 28.44140625 76.16796875 C31.16993849 72.37264194 31.12414682 69.22530072 31.12597656 64.68017578 C31.12978333 63.3751712 31.13359009 62.07016663 31.13751221 60.72561646 C31.137803 59.6797254 31.137803 59.6797254 31.13809967 58.61270523 C31.14152067 55.67658931 31.16288886 52.74069375 31.18333054 49.80465508 C31.22132599 44.33995501 31.25261468 38.87549185 31.25048828 33.41064453 C31.24970065 29.60728385 31.27308337 25.80473241 31.3123703 22.0015831 C31.32282298 20.55438756 31.3243596 19.10709853 31.31671906 17.65988541 C31.30708426 15.63277434 31.33107096 13.60558843 31.35644531 11.57861328 C31.36009094 10.42628204 31.36373657 9.27395081 31.36749268 8.08670044 C32.19667469 4.04020739 33.80509284 2.53812568 37 0 C40.5 -0.625 40.5 -0.625 44 0 C47.29326956 2.58756224 48.82064568 4.07604795 49.62818909 8.23614502 C49.62915085 9.45920349 49.63011261 10.68226196 49.63110352 11.94238281 C49.63825882 12.62115982 49.64541412 13.29993683 49.65278625 13.99928284 C49.66963971 16.23459018 49.65028573 18.46788101 49.62890625 20.703125 C49.62973566 22.26625738 49.63219777 23.82938966 49.63621521 25.39251709 C49.63907139 28.66770711 49.62439754 31.94221267 49.59692383 35.21728516 C49.56295348 39.39462401 49.5688228 43.57073035 49.5875864 47.74812698 C49.59821257 50.97747875 49.58916616 54.20654923 49.57420158 57.43587494 C49.56905272 58.97468986 49.56946114 60.51353458 49.57574654 62.05234528 C49.60483835 73.46058659 48.42887236 81.96612975 40.50390625 90.56640625 C32.79065257 97.91904028 22.8472677 97.58988683 12.88671875 97.3828125 C5.44286929 96.9894671 0.70759244 94.2955675 -4.875 89.5625 C-13.16854332 79.56146247 -13.30738801 70.7273394 -13.265625 58.17578125 C-13.26697456 56.74187657 -13.26891751 55.30797234 -13.27142334 53.87406921 C-13.27435808 50.88271691 -13.27012853 47.89148474 -13.26074219 44.90014648 C-13.24931743 41.07366852 -13.25593652 37.24747024 -13.26788712 33.42100239 C-13.27512401 30.46554975 -13.27280994 27.51016314 -13.26763153 24.55470848 C-13.2663017 23.1437597 -13.2679193 21.73280485 -13.27259064 20.32186317 C-13.27768917 18.35040024 -13.26853586 16.37891613 -13.25878906 14.4074707 C-13.25719788 13.28798538 -13.25560669 12.16850006 -13.25396729 11.01509094 C-12.91793381 7.02571303 -12.05720079 4.13551196 -9.3125 1.1875 C-5.95694997 -0.53562029 -3.71982635 -0.52208089 0 0 Z " fill="#815434" transform="translate(233,212)"/>
<path d="M0 0 C16.5 0 33 0 50 0 C45.33364433 13.99906701 37.68606095 26.82591896 30.125 39.4375 C29.16170776 41.04492065 29.16170776 41.04492065 28.17895508 42.68481445 C20.26778121 55.71492205 20.26778121 55.71492205 14.375 58.75 C13.59898437 59.15734375 12.82296875 59.5646875 12.0234375 59.984375 C7.97897626 62.01441346 4.85393396 62.12923223 0.3671875 62.09765625 C-0.76056595 62.09553383 -0.76056595 62.09553383 -1.91110229 62.09336853 C-4.3157751 62.08776465 -6.72035527 62.07521157 -9.125 62.0625 C-10.75390491 62.0574855 -12.38281127 62.0529225 -14.01171875 62.04882812 C-18.00784827 62.03779397 -22.00390842 62.02052679 -26 62 C-24.86294262 58.44001833 -23.65316751 55.07015135 -21.96875 51.734375 C-21.57510254 50.9393457 -21.18145508 50.14431641 -20.77587891 49.32519531 C-20.35483887 48.47538086 -19.93379883 47.62556641 -19.5 46.75 C-14.00347992 35.46564629 -9.5458673 23.84703606 -5.21337891 12.07519531 C-3.60424283 7.99699049 -1.78058596 4.0063184 0 0 Z " fill="#7F5B53" transform="translate(400,450)"/>
<path d="M0 0 C16.83 0 33.66 0 51 0 C52.258125 3.444375 53.51625 6.88875 54.8125 10.4375 C60.06447589 24.5967091 66.08562905 38.40609654 72.43945312 52.10302734 C72.89771484 53.09383301 73.35597656 54.08463867 73.828125 55.10546875 C74.24481445 55.9977417 74.66150391 56.89001465 75.09082031 57.80932617 C76 60 76 60 76 62 C71.46515136 62.09972601 66.9309568 62.17186655 62.39526367 62.21972656 C60.85608789 62.23970121 59.31698662 62.26689097 57.77807617 62.30175781 C47.08798138 62.53769629 38.55172089 62.41070603 30.30078125 54.859375 C26.51262667 50.75617677 23.85332341 46.12987373 21.1875 41.25 C20.42264282 39.88149902 20.42264282 39.88149902 19.64233398 38.48535156 C14.9985842 30.12818857 10.55219873 21.66740875 6.15673828 13.17773438 C4.48532499 10.03104663 2.71353036 6.9426798 0.93334961 3.85644531 C0 2 0 2 0 0 Z " fill="#7F5B53" transform="translate(61,450)"/>
<path d="M0 0 C4.69557647 -0.09954745 9.39052663 -0.17178467 14.08691406 -0.21972656 C15.68142408 -0.23973053 17.27586178 -0.26694301 18.87011719 -0.30175781 C28.9443399 -0.51610298 36.43869004 -0.61181802 44.5625 6.125 C50.78400234 13.46318224 55.69939494 21.62003698 60.375 30 C60.93082764 30.9902417 61.48665527 31.9804834 62.05932617 33.00073242 C65.60844625 39.37237705 69.03685322 45.79601102 72.3125 52.3125 C72.69132324 53.06466797 73.07014648 53.81683594 73.46044922 54.59179688 C76 59.74087181 76 59.74087181 76 62 C59.5 62 43 62 26 62 C23.36 55.4 20.72 48.8 18 42 C16.16207114 37.53332031 14.31792245 33.07341734 12.4375 28.625 C11.97496826 27.52865234 11.51243652 26.43230469 11.03588867 25.30273438 C7.99763645 18.16783756 4.76746369 11.19932239 1.14453125 4.34375 C0 2 0 2 0 0 Z " fill="#7E5B53" transform="translate(374,0)"/>
<path d="M0 0 C1.0859697 0.00424484 1.0859697 0.00424484 2.19387817 0.00857544 C4.4861974 0.01969163 6.77811313 0.04477938 9.0703125 0.0703125 C10.63280682 0.0803534 12.19530732 0.08947731 13.7578125 0.09765625 C17.57046588 0.11960277 21.38282098 0.15407237 25.1953125 0.1953125 C23.24296117 6.62945856 20.69954725 12.50349004 17.6953125 18.5078125 C13.41467142 27.26304737 9.67415919 36.1851678 6.1328125 45.2578125 C5.65585938 46.47702393 5.17890625 47.69623535 4.6875 48.95239258 C2.98374839 53.35923552 1.34234596 57.60717864 0.1953125 62.1953125 C-16.6346875 62.1953125 -33.4646875 62.1953125 -50.8046875 62.1953125 C-44.67220346 46.8641024 -36.65703265 32.12134645 -27.8046875 18.1953125 C-27.27488281 17.31746094 -26.74507812 16.43960937 -26.19921875 15.53515625 C-19.72079679 5.13147058 -12.52443613 -0.18713353 0 0 Z " fill="#7E5B53" transform="translate(111.8046875,-0.1953125)"/>
<path d="M0 0 C5.0428125 -0.1546875 5.0428125 -0.1546875 10.1875 -0.3125 C11.76374146 -0.38078003 11.76374146 -0.38078003 13.37182617 -0.45043945 C17.85168447 -0.51702091 20.31427715 -0.44776678 24.140625 2.05078125 C26.48657755 5.77177741 26.63694196 8.1210614 26.5625 12.5 C26.56443359 14.43359375 26.56443359 14.43359375 26.56640625 16.40625 C25.92727485 20.46142856 24.86908491 22.12555231 22 25 C19.59940183 26.20029908 18.10639351 26.11459743 15.4296875 26.09765625 C14.62257324 26.09515869 13.81545898 26.09266113 12.98388672 26.09008789 C11.9579541 26.08098389 10.93202148 26.07187988 9.875 26.0625 C4.986875 26.0315625 4.986875 26.0315625 0 26 C0 17.42 0 8.84 0 0 Z " fill="#FBD5AB" transform="translate(168,230)"/>
<path d="M0 0 C3.73152858 1.17474048 5.26415485 1.76958156 7.375 5.0625 C8.0849846 10.0323922 8.16617716 11.91169686 5.3125 16.0625 C1.59692774 18.59225133 -0.2132483 18.8503128 -4.625 18.0625 C-7.55039902 16.07073896 -9.21229794 14.61325925 -10.140625 11.125 C-10.49681493 6.85072086 -9.89164901 5.38117809 -7.0625 2 C-3.625 0.0625 -3.625 0.0625 0 0 Z " fill="#B8BDC1" transform="translate(256.625,87.9375)"/>
<path d="M0 0 C4.05990199 1.35330066 5.33761335 2.37620857 7.375 6.125 C8.08753588 10.55855658 7.90827109 12.3654927 5.3125 16.0625 C2.375 18.125 2.375 18.125 -1.125 18.75 C-4.625 18.125 -4.625 18.125 -7.5625 16.125 C-9.84213788 12.80916309 -10.44167462 11.01597289 -10.171875 7.06640625 C-8.72760112 1.93923399 -4.96542922 0.1712217 0 0 Z " fill="#B8BDC1" transform="translate(71.625,87.875)"/>
<path d="M0 0 C3.5 0.625 3.5 0.625 6.4375 2.625 C9.29117716 6.77580314 9.2099846 8.6551078 8.5 13.625 C6.36398066 16.95719018 4.8672811 17.51815459 1.0625 18.625 C-2.5 18.625 -2.5 18.625 -5.375 16.8125 C-8.05746728 14.05113662 -8.43791719 13.17339814 -8.875 9.3125 C-8.5 5.625 -8.5 5.625 -6.4375 2.6875 C-3.5 0.625 -3.5 0.625 0 0 Z " fill="#B9BEC2" transform="translate(361.5,405.375)"/>
<path d="M0 0 C3.73152858 1.17474048 5.26415485 1.76958156 7.375 5.0625 C8.0849846 10.0323922 8.16617716 11.91169686 5.3125 16.0625 C2.375 18.0625 2.375 18.0625 -1.125 18.75 C-4.89823072 18.00882968 -6.50212447 16.99866409 -8.734375 13.84375 C-10.33188161 10.64873678 -10.31817444 8.52837218 -9.625 5.0625 C-6.48302168 1.38408636 -4.88568266 0.08423591 0 0 Z " fill="#B9BEC2" transform="translate(362.625,87.9375)"/>
<path d="M0 0 C2.93052231 1.99524923 4.64521503 3.42836485 5.4453125 6.97265625 C5.63409202 10.33922437 5.25759307 12.59815481 3.4375 15.4375 C0.16434238 17.53567796 -2.11417724 18 -6 18 C-8.875 16.625 -8.875 16.625 -11 14 C-12.03188689 10.92153743 -12.3792449 8.22932776 -12 5 C-8.76300558 0.0433523 -5.78608171 -1.03322888 0 0 Z " fill="#B9BEC2" transform="translate(259,406)"/>
<path d="M0 0 C3.57909747 0.87857121 4.98058413 2.44045084 6.94140625 5.4765625 C7.27496815 9.1244522 6.63630096 12.20940155 4.87890625 15.4140625 C1.67740809 17.16972278 -1.41368375 17.81760671 -5.05859375 17.4765625 C-8.72512045 14.9802039 -9.8298891 13.18808808 -11.18359375 8.9765625 C-11.05859375 5.4765625 -11.05859375 5.4765625 -9.12109375 2.5390625 C-5.75190001 0.27001366 -3.97554996 -0.28666205 0 0 Z " fill="#B8BDC2" transform="translate(443.05859375,88.5234375)"/>
<path d="M0 0 C3.28573474 2.16166759 3.90007665 3.63361438 4.9375 7.4375 C5.00779003 11.44403151 4.53249114 12.94354518 2 16 C-0.54229606 17.92863839 -1.78345018 18.00902291 -5 17.875 C-8.57231176 16.83307574 -9.93095202 16.10357196 -12 13 C-12.7099846 8.0301078 -12.79117716 6.15080314 -9.9375 2 C-6.25623347 -0.50639423 -4.37098953 -0.71525283 0 0 Z " fill="#B9BEC2" transform="translate(74,406)"/>
<path d="M0 0 C3.12909866 1.18239427 4.32242727 2.80328161 5.87109375 5.70703125 C6.43359375 8.70703125 6.43359375 8.70703125 5.87109375 11.70703125 C3.87475986 14.57676121 2.39879492 16.3591389 -1.1015625 17.15625 C-4.44846545 17.33767091 -6.75787176 16.92965194 -9.62890625 15.20703125 C-11.72477751 11.71391249 -12.00088933 8.61166346 -11.12890625 4.70703125 C-8.01906712 -0.05490992 -5.3741124 -1.08701328 0 0 Z " fill="#B9BEC2" transform="translate(444.12890625,406.29296875)"/>
<path d="M0 0 C2.81135401 1.99918507 4.65872562 3.51427962 5.453125 6.97265625 C5.62825514 10.31889287 5.22239064 12.62934893 3.5 15.5 C0.00688124 17.59587126 -3.09536779 17.87198308 -7 17 C-10.0625 15 -10.0625 15 -12 12 C-12.34254075 8.25391602 -11.8111353 5.14296338 -9.625 2.0625 C-6.50168853 0.02033481 -3.63574695 -0.51939242 0 0 Z " fill="#BAC0C4" transform="translate(153,406)"/>
<path d="M0 0 C2.5 1.5 2.5 1.5 4 4 C4.70851227 8.95958592 4.74555354 10.85837114 2 15.0625 C-1.55375638 17.35763433 -3.16883679 17.40891547 -7.19921875 16.56640625 C-9.7108779 15.776405 -10.71057742 15.35129999 -12 13 C-12.85956755 10.26716801 -13.26176186 7.86267229 -13 5 C-9.42976287 -0.52810911 -6.10488519 -0.87212646 0 0 Z " fill="#BAC0C4" transform="translate(154,89)"/>
</svg>
